<?xml version="1.0" encoding="utf-8"?>
<!-- Svg Vector Icons : http://www.onlinewebfonts.com/icon -->
<!DOCTYPE svg PUBLIC "-//W3C//DTD SVG 1.1//EN" "http://www.w3.org/Graphics/SVG/1.1/DTD/svg11.dtd">
<svg fill="#f36886" version="1.1" xmlns="http://www.w3.org/2000/svg" xmlns:xlink="http://www.w3.org/1999/xlink" x="0px" y="0px" viewBox="0 0 1000 1000" enable-background="new 0 0 1000 1000" xml:space="preserve">
<metadata> Svg Vector Icons : http://www.onlinewebfonts.com/icon </metadata>
<g><g transform="translate(0.000000,350.000000) scale(0.100000,-0.100000)"><path d="M667.5,1801.9c-1.9-30.7-128.4-1537.5-283.7-3351L100-4846.5l2195-5.8c1205.8-1.9,2195-1.9,2198.9,0c1.9,3.8,44.1,260.7,92,571.3c49.8,310.6,93.9,594.3,99.7,628.8l11.5,61.3H5000c272.2,0,304.8-3.8,314.4-32.6c5.8-19.2,61.4-301,124.6-626.9c65.2-325.9,118.9-596.2,122.7-600c3.8-3.8,981.5-3.8,2172-1.9l2166.3,5.8l-283.7,3297.3c-155.3,1813.5-281.8,3320.4-283.7,3351v51.8H5000H667.5V1801.9z M9002.8,1205.7c13.4-145.7,23-283.7,23-306.7v-42.2H5000H974.2V899c0,23,9.6,161,23,306.7l21.1,264.6H5000h3981.7L9002.8,1205.7z M3773.1,331.5c-249.2-646.1-343.2-1857.6-199.4-2557.4c109.3-531,348.9-958.5,682.5-1223.1l72.8-55.6l-76.7-477.3c-42.2-260.7-76.7-479.3-76.7-483.1c0-3.8-824.3-7.7-1830.8-7.7c-1073.5,0-1830.8,7.7-1830.8,17.2c0,34.5,400.7,4731.3,412.2,4829.1l11.5,99.7h1445.5h1443.5L3773.1,331.5z M5791.8,364.1c86.3-302.9,141.9-793.7,166.8-1424.4c38.3-1016-88.2-1639.1-412.2-2037.8l-88.2-109.3h-440.9h-440.9l-86.3,59.4c-197.5,136.1-400.7,458.2-494.6,787.9c-92,318.2-113.1,550.2-101.6,1069.7c17.3,728.5,118.9,1288.3,302.9,1654.4l55.6,109.3h755.3h753.4L5791.8,364.1z M9073.7,373.7c9.6-93.9,412.2-4798.4,412.2-4831c0-7.7-814.7-15.3-1809.7-15.3H5866.5l-88.2,456.2c-95.9,498.4-101.6,536.8-61.3,552.1c51.8,19.2,245.4,283.7,327.8,446.7c105.4,212.8,191.7,486.9,245.4,776.4c38.3,210.9,42.2,291.4,40.3,902.9c0,498.4-9.6,745.7-32.6,962.4c-34.5,297.1-93.9,674.8-126.6,787.9l-19.2,61.3h1455.1h1455L9073.7,373.7z"/></g></g>
</svg>
