<?xml version="1.0" encoding="utf-8"?>
<!-- Svg Vector Icons : http://www.onlinewebfonts.com/icon -->
<!DOCTYPE svg PUBLIC "-//W3C//DTD SVG 1.1//EN" "http://www.w3.org/Graphics/SVG/1.1/DTD/svg11.dtd">
<svg fill="#eadca6" version="1.1" xmlns="http://www.w3.org/2000/svg" xmlns:xlink="http://www.w3.org/1999/xlink" x="0px" y="0px" viewBox="0 0 1000 1000" enable-background="new 0 0 1000 1000" xml:space="preserve">
<metadata> Svg Vector Icons : http://www.onlinewebfonts.com/icon </metadata>
<g><g transform="translate(0.000000,512.000000) scale(0.100000,-0.100000)"><path d="M2780.2,4945.9c-165-170.7-226.4-385.6-211-731c7.7-163.1,3.8-228.3-11.5-232.1c-213-57.6-500.7-166.9-617.8-236c-370.3-216.8-646.6-629.3-871-1306.5c-126.6-376-207.2-715.6-347.3-1450.4C656.4,654.1,527.8,32.5,433.8-391.5C123-1801.7,100-1959,100-2666.9c1.9-466.2,36.5-978.5,74.8-1078.2c48-122.8,729-199.5,1076.3-124.7c178.4,40.3,383.7,119,458.5,174.6c57.6,46,61.4,51.8,84.4,283.9c59.5,606.2,224.5,1561.7,366.4,2125.7c72.9,293.5,209.1,765.5,232.1,805.8c57.6,99.8-28.8-1179.9-126.6-1889.8c-92.1-667.6-147.7-1555.9-111.3-1755.5c15.3-80.6,24.9-90.2,136.2-155.4c372.2-216.8,1078.2-402.9,1826.5-481.6c320.4-32.6,1444.7-32.6,1765.1,0c748.2,78.7,1454.2,264.8,1826.4,481.6l120.9,71l17.3,113.2c9.6,69.1,7.6,295.5-5.8,566c-23,493.1-38.4,646.6-107.4,1151.1c-74.8,550.6-145.8,1446.6-142,1803.4V-451l38.4-105.5c214.9-594.8,485.4-1932,575.6-2854.8c23-232.2,25-237.9,84.4-282c74.8-57.6,278.2-136.2,458.5-176.5c347.2-76.7,1028.3,1.9,1076.3,124.7c38.4,99.8,72.9,612,74.8,1078.2c0,698.4-28.8,901.7-305.1,2139.2c-147.8,663.8-212.9,974.6-374.1,1809.2C8915.8,2847,8541.6,3560.7,7879.7,3838.9c-71,28.8-199.5,74.8-289.7,99.8l-163.1,48l5.7,226.4c11.5,351.1-57.5,585.2-220.6,740.6l-72.9,71l-182.3-57.6c-237.9-74.8-761.7-180.3-1112.8-222.6c-389.5-48-1297-48-1688.3,0c-424,51.8-1099.3,197.6-1295,282C2858.9,5026.5,2824.4,4990,2780.2,4945.9z M3252.2,4257.1c149.7-149.6,312.7-255.2,543-353c71-30.7,126.6-57.6,124.7-59.5c-17.3-17.3-1064.8,138.1-1105.1,163.1c-34.5,21.1-63.3,245.6-49.9,376c13.4,120.9,59.5,291.6,92.1,330c13.4,19.2,48-19.2,134.3-143.9C3054.6,4477.8,3173.5,4337.7,3252.2,4257.1z M7192.9,4589c17.3-59.5,36.5-157.3,42.2-214.9c13.4-120.9-17.3-345.3-49.9-366.4c-40.3-24.9-1087.8-180.3-1105.1-163.1c-1.9,1.9,53.7,28.8,124.7,59.5c345.4,145.8,543,308.9,771.3,629.3c97.8,136.2,151.6,195.7,165,184.2C7152.6,4708,7177.6,4650.4,7192.9,4589z M3513.1,4646.6c782.8-161.2,1646.1-191.9,2455.8-88.3c186.1,23,546.8,90.2,851.9,157.3c44.1,9.6,40.3,1.9-38.4-111.3c-232.2-330-485.4-481.6-1231.7-729.1c-351.1-117-326.2-94-458.5-425.9c-44.1-113.2-86.3-207.2-92.1-207.2s-48,94-92.1,207.2c-130.5,330-111.3,310.8-427.8,416.3c-771.2,255.2-1030.3,408.6-1262.4,738.6c-78.7,113.2-82.5,120.9-38.4,111.3C3204.2,4709.9,3355.8,4679.2,3513.1,4646.6z M3083.4,3750.6c416.3-67.1,838.4-119,1201-145.8l312.7-23l-11.5-49.9c-34.5-159.2-103.6-312.7-247.5-558.3c-274.4-466.2-330-648.5-310.8-1014.9c11.5-207.2,63.3-452.8,124.7-575.6c38.4-80.6,113.2-101.7,166.9-48c34.5,36.5,36.5,28.8-38.4,305c-42.2,153.5-53.7,234.1-53.7,402.9c0,283.9,48,431.7,262.8,788.5c90.2,149.6,182.3,316.6,205.3,372.2c23,53.7,48,90.2,55.6,82.5c7.7-7.7,44.1-97.8,78.7-197.6l65.2-182.3l5.8-3432.3c1.9-1889.8-1.9-3440-11.5-3449.6c-21.1-21.1-667.7,17.3-1013,61.4c-521.8,67.1-1191.4,234.1-1446.6,360.7l-67.1,32.6l5.8,134.3c9.6,220.6,42.2,554.5,90.2,920.9c107.4,800,143.9,1329.6,143.9,2072c0,836.5-30.7,1007.3-166.9,957.4l-53.7-19.2l5.8-211c5.8-205.3,3.8-214.9-71-414.4c-247.5-656.2-475.8-1584.7-615.9-2494.1c-30.7-203.4-57.6-379.9-57.6-393.3c0-26.9-239.8-105.5-460.5-151.6c-180.3-36.5-602.4-30.7-780.9,11.5l-101.7,23v404.8c0,650.4,40.3,928.6,299.3,2093.1c88.3,399.1,226.4,1061,307,1467.7c195.7,1007.2,307,1427.4,489.2,1851.4c184.2,429.8,447,742.5,746.3,890.2c180.3,86.3,542.9,199.5,606.3,186.1C2768.7,3802.4,2920.3,3777.5,3083.4,3750.6z M7486.4,3760.2c330-94,504.6-188,698.4-383.7c393.3-395.2,625.4-1011.1,872.9-2311.9c113.2-598.6,193.8-988.1,345.3-1659.6c251.3-1126.2,278.2-1312.3,291.6-1978l9.6-512.2l-53.7-11.5c-404.8-82.5-727.1-67.1-1131.9,53.7c-174.6,51.8-143.9-17.3-228.3,519.9c-138.2,884.5-364.5,1803.4-606.3,2442.3c-74.8,199.5-76.7,209.1-71,414.4l5.8,211l-53.7,19.2c-136.2,49.9-166.9-118.9-166.9-970.8c0-734.8,36.5-1256.7,143.9-2058.6c40.3-312.7,69.1-581.3,94-928.6l7.6-120.9l-117-53.7c-307-138.1-867.2-276.3-1402.5-345.4c-335.8-42.2-991.9-82.5-1014.9-59.5c-7.7,7.7-11.5,1557.9-9.6,3447.6l5.8,3432.3l44.1,124.7c99.8,274.3,199.5,518,213,518c7.7,0,65.2-32.6,128.5-72.9c433.6-284,552.6-775.1,387.5-1609.7l-42.2-220.6l44.1-36.5c55.6-44.1,63.3-44.1,115.1-1.9c32.6,24.9,53.7,88.3,92.1,272.4c44.1,207.2,51.8,287.8,51.8,585.2c1.9,395.2-17.3,495-140.1,748.2c-51.8,105.5-113.2,191.9-191.9,270.5l-117,117l253.2,23c360.7,32.6,968.9,120.9,1321.9,191.9C7271.6,3815.9,7371.3,3790.9,7486.4,3760.2z M1596.5-3340.4c-5.8-65.2-11.5-138.1-11.5-161.2c0-49.9-95.9-97.9-307-155.4c-218.7-59.5-784.7-42.2-897.9,28.8c-19.2,11.5-69.1,307-55.6,322.3c1.9,1.9,99.8-9.6,214.9-26.9c314.6-42.2,638.9-15.4,930.5,78.7C1611.8-3209.9,1611.8-3208,1596.5-3340.4z M8547.4-3261.7c324.2-95.9,606.3-115.1,930.5-67.2c105.5,15.4,191.9,26.9,195.7,23c15.4-15.3-34.6-310.8-53.7-322.3c-113.2-71-679.1-88.3-897.9-28.8c-211,57.6-307,105.5-307,155.4c0,23-5.8,95.9-11.5,161.2c-7.7,63.3-5.8,117,1.9,117C8413.1-3223.3,8478.3-3240.6,8547.4-3261.7z M2860.8-3917.8c502.7-145.8,1341.1-264.8,1885.9-264.8h157.3v-205.3v-203.4l-368.4,11.5c-809.6,26.9-1561.7,184.2-2052.9,429.8l-130.5,63.3v170.7v172.7l159.2-59.5C2598-3835.4,2755.3-3887.1,2860.8-3917.8z M7647.6-3914v-172.7L7519-4150c-493.1-245.6-1245.1-402.9-2052.9-429.8l-370.3-11.5v201.4v201.5l312.7,11.5c840.3,34.5,1586.7,180.4,2235.1,433.6C7645.7-3741.3,7647.6-3818.1,7647.6-3914z"/></g></g>
</svg>
