<?xml version="1.0" encoding="utf-8"?>
<!-- Svg Vector Icons : http://www.onlinewebfonts.com/icon -->
<!DOCTYPE svg PUBLIC "-//W3C//DTD SVG 1.1//EN" "http://www.w3.org/Graphics/SVG/1.1/DTD/svg11.dtd">
<svg fill="#b0deff" version="1.1" xmlns="http://www.w3.org/2000/svg" xmlns:xlink="http://www.w3.org/1999/xlink" x="0px" y="0px" viewBox="0 0 1000 1000" enable-background="new 0 0 1000 1000" xml:space="preserve">
<metadata> Svg Vector Icons : http://www.onlinewebfonts.com/icon </metadata>
<g><g transform="translate(0.000000,511.000000) scale(0.100000,-0.100000)"><path d="M4065.4,4448.5l-32.1-50.1h-599.2c-454.9,0-601.2-6-613.2-24c-8-14-22-178.3-28.1-366.7c-8-234.5-50.1-641.2-132.3-1312.5c-68.1-535-166.3-1334.6-218.4-1777.5C2388.1,472.8,2340,110.1,2334,110.1s-64.1,82.2-128.2,182.4c-130.3,198.4-184.4,248.5-244.5,224.4c-22-10-442.9-222.4-937.8-476.9C424.3-266.6,117.7-435,105.7-461c-22-50.1-30.1-36.1,985.9-2094.1c386.7-787.5,727.4-1480.9,755.5-1539c94.2-198.4-34.1-184.4,1635.2-184.4c1579.1,0,1531-4,1603.1,108.2c18,26,56.1,186.3,84.2,356.7c74.2,444.9,376.7,1863.6,392.8,1845.6c8-10,262.5-525,569.1-1148.2c304.6-623.2,565.1-1138.2,577.1-1146.2c14-8,695.4-16,1517-16c1424.8,0,1494.9,2,1555,38.1c34.1,20,76.2,70.1,96.2,110.2c32.1,70.1,32.1,88.2-6,398.8c-50.1,388.8-613.2,5021.8-783.5,6436.5c-98.2,823.6-120.2,1056.1-120.2,1308.5c0,174.3-8,324.6-20,346.7c-20,36.1-48.1,38.1-619.2,38.1h-599.2l-32.1,50.1c-32.1,48.1-38.1,50.1-282.5,50.1c-198.4,0-254.5-6-278.6-32.1c-18-16-32.1-40.1-32.1-50.1s-480.9-18-1214.4-18H4674.5l-40.1,50.1c-38.1,48.1-46.1,50.1-286.6,50.1C4103.4,4498.6,4097.4,4496.6,4065.4,4448.5z M4438.1,3977.6V3657h-90.2h-90.2v320.6v320.6h90.2h90.2V3977.6z M7504.1,3977.6V3657h-100.2h-100.2v306.6c0,170.3,6,314.6,14,320.6c6,8,52.1,14,100.2,14h86.2V3977.6z M4037.3,3977.6v-220.4h-521h-521v220.4v220.4h521h521V3977.6z M5800.7,3977.6v-220.4h-571.1h-571.1v220.4v220.4h571.1h571.1V3977.6z M7103.3,3977.6v-220.4h-581.1H5941v220.4v220.4h581.1h581.1V3977.6z M8746.5,3977.6v-220.4h-511h-511v220.4v220.4h511h511V3977.6z M4061.4,3486.7c22-28,50.1-50.1,66.1-50.1c52.1,0-64.1-406.8-186.4-651.3c-194.4-392.8-539.1-715.4-929.8-869.7c-226.4-90.2-236.5-92.2-236.5-46.1c0,44.1,174.3,1496.9,190.4,1603.1l12,64.1h523h521L4061.4,3486.7z M5780.7,2434.6V1332.5l46.1-28.1c34.1-22,68.1-24,152.3-12c208.4,34.1,384.8,166.3,466.9,348.7c46.1,102.2,46.1,110.2,52.1,999.9l6,895.7h298.6c172.3,0,300.6-8,300.6-18c0-50.1,68.1-82.2,172.3-82.2c70.1,0,112.2-8,116.2-24c4-14,22-98.2,42.1-186.4c108.2-505,404.8-973.9,797.5-1266.5c154.3-114.2,418.8-244.5,623.2-306.6c118.2-36.1,156.3-58.1,162.3-88.2c26.1-122.2,671.3-5520.7,667.3-5572.8l-6-60.1l-1402.7-4c-771.5-4-1412.7,2-1426.8,10c-12,8-48.1,154.3-76.1,324.6C6726.5-3458.8,6029.2-110.3,5979.1,74c-26,102.2-96.2,140.3-164.3,90.2c-42.1-30.1-46.1-52.1-254.5-1040c-400.8-1925.7-541.1-2609.1-581.1-2851.5c-24-142.3-50.1-280.5-60.1-304.6l-20-46.1H3486.2c-1232.4,0-1414.7,4-1424.8,30.1c-6,16,92.2,893.7,220.4,1947.8c128.2,1056.1,278.5,2294.5,332.7,2751.3c56.1,456.9,104.2,859.7,110.2,893.7c10,56.1,22,64.1,136.3,96.2c162.3,46.1,456.9,184.4,617.2,294.6c162.3,108.2,386.7,332.6,497,493c166.3,248.5,300.6,577.1,362.7,893.7l22,114.2h118.2c102.2,0,122.2,6,154.3,50.1l36.1,48.1l557.1,2h555.1V2434.6z M6297.7,2661.1l-6-877.7l-54.1-92.2c-54.1-92.2-112.2-142.3-206.4-178.3l-50.1-20v1022v1022h160.3h162.3L6297.7,2661.1z M8776.5,3492.7c4-26,50.1-388.8,100.2-807.6c50.1-418.8,94.2-781.5,98.2-807.6c6-42.1,2-46.1-46.1-34.1c-126.2,32.1-364.7,146.3-523,252.5c-376.7,252.5-627.2,621.2-759.5,1112.2c-50.1,190.4-52.1,228.4-12,228.4c16,0,44.1,22.1,62.1,50.1l32.1,50.1h519h519L8776.5,3492.7z M2161.7-16.1l136.3-212.4l-204.4-1679.3c-112.2-923.8-208.4-1695.3-216.4-1715.3c-10-24-236.5,418.8-771.5,1502.9c-414.8,845.6-757.5,1549-759.5,1559c-2,12,356.7,206.4,797.6,432.8l799.6,412.8l42.1-44.1C2007.4,216.3,2087.5,100.1,2161.7-16.1z M6181.5-1905.8c164.3-781.5,296.6-1422.8,292.6-1424.8c-2-4-196.4,380.7-428.8,853.7l-422.8,857.7l124.2,587.1c66.1,322.6,126.2,577.1,128.3,567.1C5878.9-475,6017.2-1124.3,6181.5-1905.8z"/><path d="M6079.3,4085.8c-66.1-70.1-66.1-196.4,0-250.5c106.2-86.2,230.4-64.1,292.6,52.1c32.1,56.1,34.1,74.2,10,128.2C6329.8,4145.9,6169.5,4182,6079.3,4085.8z M6241.6,3971.6c0-16-6-34.1-14-40.1c-18-18-68.1,26-54.1,48.1C6189.5,4007.7,6241.6,4001.7,6241.6,3971.6z"/><path d="M4570.4,3164c-38.1-38.1-64.1-204.4-36.1-232.5c52.1-52.1,124.2,64.1,124.2,196.4C4658.5,3184.1,4608.4,3204.1,4570.4,3164z"/><path d="M7123.3,3176.1c-18-10-20-44.1-10-116.2c14-110.2,50.1-156.3,102.2-136.3c26.1,10,30.1,30.1,18,104.2C7211.5,3174.1,7183.4,3214.1,7123.3,3176.1z"/><path d="M4444.1,2739.2c-36.1-24-104.2-196.4-86.2-222.4c28.1-48.1,90.2-12,132.3,78.1c30.1,64.1,38.1,100.2,24,126.2C4494.2,2759.3,4480.2,2763.3,4444.1,2739.2z"/><path d="M7231.5,2709.2c-6-16,8-70.1,30.1-120.2c30.1-68.1,52.1-94.2,82.2-94.2c62.1,0,68.1,46.1,22,148.3c-28,68.1-52.1,92.2-82.1,92.2C7261.6,2735.2,7237.5,2723.2,7231.5,2709.2z"/><path d="M4161.6,2276.3c-76.2-96.2-84.2-162.3-18-162.3c48.1,2,154.3,124.2,154.3,182.4c0,26-36.1,58.1-68.1,58.1C4225.7,2354.5,4195.6,2318.4,4161.6,2276.3z"/><path d="M7452,2306.4c-12-34.1,84.2-184.4,130.3-202.4c16-6,42.1,2,60.1,18c26,28.1,24,40.1-32.1,116.2C7546.1,2328.4,7472,2360.5,7452,2306.4z"/><path d="M3855,1947.7c-94.2-70.1-116.2-140.3-48.1-150.3c44.1-6,190.4,104.2,190.4,146.3c0,14-12,36.1-28.1,48.1C3947.1,2009.8,3923.1,1999.8,3855,1947.7z"/><path d="M7750.5,1961.7c-12-30.1,72.2-134.3,138.3-170.3c44.1-24,96.2-2,96.2,40.1c0,38.1-144.3,162.3-190.4,162.3C7778.6,1993.8,7758.5,1979.7,7750.5,1961.7z"/><path d="M3462.2,1679.2c-146.3-84.2-102.2-186.4,48.1-108.2c108.2,54.1,138.3,92.2,106.2,132.3S3564.4,1739.3,3462.2,1679.2z"/><path d="M8117.2,1683.2c-20-56.1,150.3-168.3,220.4-142.3c52.1,20,24.1,78.2-62.1,126.3C8181.4,1719.2,8133.3,1725.2,8117.2,1683.2z"/><path d="M3055.4,1496.8c-62.1-24.1-92.2-48.1-96.2-76.2c-8-58.1,30.1-68.1,142.3-34.1c102.2,30.1,134.3,68.1,94.2,116.2C3165.6,1538.9,3167.6,1538.9,3055.4,1496.8z"/><path d="M8534.1,1482.8c-18-46.1,22-82.2,120.2-110.2c98.2-26,132.3-16,132.3,40.1c0,26-28.1,46.1-94.2,68.1C8576.1,1520.8,8548.1,1520.8,8534.1,1482.8z"/><path d="M1929.2-72.2c-40.1-20-78.1-46.1-84.2-56.1c-20-30.1,10-82.1,46.1-82.1c56.1,0,162.3,78.2,162.3,118.2C2053.5-36.2,2011.4-30.2,1929.2-72.2z"/><path d="M1522.4-296.7c-84.2-48.1-108.2-118.2-44.1-130.3c54.1-10,218.4,92.2,210.4,132.2C1678.7-244.6,1612.6-244.6,1522.4-296.7z"/><path d="M1121.7-517.1c-144.3-82.2-100.2-172.3,52.1-104.2c94.2,44.1,122.2,74.1,106.2,118.2C1263.9-459,1217.8-463,1121.7-517.1z"/><path d="M720.9-737.5C576.6-819.7,620.7-909.9,773-839.7c84.2,36.1,120.2,80.2,104.2,124.2C863.1-679.4,811-687.4,720.9-737.5z"/></g></g>
</svg>
