<?xml version="1.0" encoding="utf-8"?>
<!-- Svg Vector Icons : http://www.onlinewebfonts.com/icon -->
<!DOCTYPE svg PUBLIC "-//W3C//DTD SVG 1.1//EN" "http://www.w3.org/Graphics/SVG/1.1/DTD/svg11.dtd">
<svg fill="#b8e9c0" version="1.1" xmlns="http://www.w3.org/2000/svg" xmlns:xlink="http://www.w3.org/1999/xlink" x="0px" y="0px" viewBox="0 0 1000 1000" enable-background="new 0 0 1000 1000" xml:space="preserve">
<metadata> Svg Vector Icons : http://www.onlinewebfonts.com/icon </metadata>
<g><g transform="translate(0.000000,511.000000) scale(0.100000,-0.100000)"><path d="M4699.5,5013.9c-200.1-35.9-433.6-120.6-620.9-223.2c-130.9-71.8-313-236-839-759.5c-372-369.5-692.8-710.7-715.8-759.5c-61.6-125.7-74.4-336.1-33.3-484.9c25.7-97.5,82.1-169.3,300.2-395.1c151.4-156.5,261.7-289.9,254-307.9c-5.1-20.5-649.1-859.5-1429.1-1867.9c-780-1008.3-1442-1885.8-1467.6-1947.4c-120.6-266.8-10.3-608.1,297.6-916c246.3-246.3,464.4-354.1,738.9-366.9c313-12.8,338.7,5.1,959.6,697.9l536.2,595.3l18-397.7c12.8-218.1,35.9-803.1,56.4-1298.3c33.4-880.1,35.9-900.6,102.6-1028.9c35.9-71.8,107.8-166.8,161.7-210.4c192.4-159.1,184.7-159.1,2050-151.4c1590.7,7.7,1696,10.2,1780.6,56.4c128.3,66.7,251.4,189.9,313,310.4c64.1,123.2,79.5,310.4,125.7,1654.9c15.4,515.7,38.5,957,48.8,985.3c12.8,38.5,115.5-61.6,536.2-531.1c605.5-674.8,633.7-695.3,946.7-682.5c274.5,12.8,492.6,120.6,738.9,366.9c225.8,228.3,325.8,420.8,338.7,656.8c7.7,136-2.6,187.3-51.3,282.2C9813-1644.2,9156.2-779.5,8386.5,216c-767.2,995.5-1408.6,1824.3-1418.9,1844.8c-15.4,23.1,51.3,107.8,223.2,282.2c297.6,300.2,361.8,413.1,361.8,644c0,272-53.9,343.8-746.7,1028.9c-726.1,721-851.8,813.3-1277.7,944.2C5323,5024.2,4912.5,5049.9,4699.5,5013.9z M5466.7,4554.7c277.1-87.2,438.7-215.5,1059.6-844.1c325.8-328.4,597.8-610.7,610.6-628.6c10.3-15.4,20.5-64.1,20.5-105.2c0-61.6-59-136-348.9-428.5c-343.8-343.8-351.5-356.6-336.1-443.9c15.4-100.1-66.7,7.7,1888.4-2517c1221.3-1580.5,1185.4-1524.1,1090.4-1713.9c-156.5-300.2-546.5-554.2-741.5-479.8c-33.3,12.8-361.8,359.2-731.2,767.2c-369.5,410.5-679.9,746.6-690.2,746.6c-7.7,0-87.2-25.7-174.5-56.4c-143.7-48.7-161.6-64.2-171.9-133.4c-7.7-43.6-30.8-615.8-53.9-1272.6c-56.5-1696-56.5-1690.8-143.7-1775.5l-69.3-71.8h-733.8h-733.8l2.6,2945.5V1486l697.9,577.3c382.3,318.2,723.5,615.8,754.3,662c71.8,110.3,94.9,256.6,59,392.6c-51.3,192.4-623.5,733.8-1026.3,972.4c-464.4,277.1-895.4,284.8-1352.2,23.1c-313-179.6-933.9-736.4-1010.9-908.3c-64.1-141.1-61.6-310.5,10.3-449C3421.7,2597,4348,1817,4599.4,1693.9l177-82.1l5.1-3007.1l7.7-3007.1h-715.9h-713.3l-82.1,74.4l-82.1,71.8l-18,407.9c-10.3,225.8-38.5,910.8-61.6,1524.1c-25.7,613.2-46.2,1118.7-48.7,1121.2c-2.6,2.6-82.1,35.9-177,71.8l-171.9,64.2l-662-738.9c-364.3-405.4-682.5-751.8-705.6-772.3c-23.1-17.9-89.8-33.3-148.8-33.3c-205.3,2.6-482.4,195-613.2,425.9C442.9-1934.1,332.6-2106,2061.9,126.2l1549.7,2001.3l-369.5,374.6c-364.3,366.9-369.5,374.6-369.5,487.5v112.9l636.3,631.2c682.5,679.9,803.1,769.7,1149.5,857C4863.7,4641.9,5246,4626.5,5466.7,4554.7z M5346.1,3813.2c87.2-38.5,243.8-133.4,348.9-213c264.3-197.5,641.4-556.8,641.4-610.6c0-28.2-261.7-264.3-667.1-602.9l-669.7-556.8l-603,508c-331,279.7-626,523.4-654.3,543.9c-28.2,18-48.7,64.1-48.7,102.6c0,56.5,59,123.2,289.9,333.6C4609.7,3890.1,4922.7,4005.6,5346.1,3813.2z"/></g></g>
</svg>
