<svg id="Livello_1" data-name="Livello 1" xmlns="http://www.w3.org/2000/svg" viewBox="0 0 613.99 296.42"><defs><style>.cls-1{fill:#fff;}</style></defs><title>logo nero trasparente</title><path class="cls-1" d="M825.1,385.85H776a1.18,1.18,0,0,0-1.17.93v12.66a1.08,1.08,0,0,0,1.17,1h49.1c.75,0,1.2-.42,1.2-1V386.78A1.11,1.11,0,0,0,825.1,385.85Z" transform="translate(-334.53 -326.22)"/><path class="cls-1" d="M792.49,469.94a1.11,1.11,0,0,0,1.2,1h13.78a1.22,1.22,0,0,0,1.26-1V420.49H792.49Z" transform="translate(-334.53 -326.22)"/><path class="cls-1" d="M892.85,385.85h-14a1.2,1.2,0,0,0-1.17.93v33.71H845.28V386.78a1.11,1.11,0,0,0-1.2-.93h-14a1.18,1.18,0,0,0-1.17.93v83.16a1.19,1.19,0,0,0,1.17,1h14a1.13,1.13,0,0,0,1.2-1v-34h32.37v34a1.22,1.22,0,0,0,1.17,1h14a1.09,1.09,0,0,0,1.17-1V386.78A1.08,1.08,0,0,0,892.85,385.85Z" transform="translate(-334.53 -326.22)"/><path class="cls-1" d="M947.32,420.49H913.75V401.26H938V385.85H898.55a1.18,1.18,0,0,0-1.17.93v83.16a1.19,1.19,0,0,0,1.17,1H938V455.06H913.75V435.92h33.57a1.22,1.22,0,0,0,1.2-1V421.46A1.11,1.11,0,0,0,947.32,420.49Z" transform="translate(-334.53 -326.22)"/><path class="cls-1" d="M334.53,504.87V482.55c0-.75,1.26-1.7,2.75-1.7H453.34c1.76,0,2.78.95,2.78,1.7v22.32c0,1-1,1.68-2.78,1.68H337.28C335.79,506.55,334.53,505.84,334.53,504.87Zm71.24,34.48v81.81c0,.69-.86,1.48-2.11,1.48H380.77c-1.24,0-1.93-.79-1.93-1.48V539.35Z" transform="translate(-334.53 -326.22)"/><path class="cls-1" d="M563.09,622.64H537.75c-.51,0-1.6-.53-1.75-1.06L510.11,565.4H494.86V621a1.94,1.94,0,0,1-2,1.62H469.7a1.89,1.89,0,0,1-1.8-1.62V539.35h47.67c5.87,0,20.95-.71,20.95-16.32s-16.67-16.48-20.95-16.48H467.9V482.46a1.92,1.92,0,0,1,1.8-1.61h45.87c8,0,47.86.35,47.86,42.18,0,21.64-11.86,33-26,38.12,8.87,20,18.41,39.51,27.28,59.2A1.55,1.55,0,0,1,563.09,622.64Z" transform="translate(-334.53 -326.22)"/><path class="cls-1" d="M838.36,622.64H776.28A1.89,1.89,0,0,1,774.4,621V483a1.92,1.92,0,0,1,1.88-1.6h62.08V507H800.14v32H853a1.73,1.73,0,0,1,1.85,1.59v22.41a1.85,1.85,0,0,1-1.85,1.6H800.14v31.78h38.22Z" transform="translate(-334.53 -326.22)"/><path class="cls-1" d="M869.74,564.54V482.45a1.94,1.94,0,0,1,2-1.6H895.6a1.77,1.77,0,0,1,1.81,1.6v82.09Zm78.78,33.56V621a1.81,1.81,0,0,1-2,1.61H871.94A1.89,1.89,0,0,1,870,621V596.32h76.53A1.85,1.85,0,0,1,948.52,598.1Z" transform="translate(-334.53 -326.22)"/><path class="cls-1" d="M684,620.51l-53.88-138.6a2,2,0,0,0-3.56,0l-53.67,138.6c-.56,1.07.18,2.13,1.73,2.13H599a1.77,1.77,0,0,0,1.73-1.06l6.74-19.24h42.14l6.83,19.24a1.69,1.69,0,0,0,1.56,1.06H682.4C683.66,622.64,684.55,621.58,684,620.51Z" transform="translate(-334.53 -326.22)"/><path class="cls-1" d="M456.12,327.84V469.11a1.84,1.84,0,0,1-2,1.63H430.29c-.36,0-1.44-.19-1.62-.54L362.17,375v68.81H334.53v-116a2,2,0,0,1,1.81-1.62h24c.37,0,1.45.18,1.64.55L428.67,422V327.84a2,2,0,0,1,2.16-1.62h23.3A1.85,1.85,0,0,1,456.12,327.84Z" transform="translate(-334.53 -326.22)"/><path class="cls-1" d="M655.14,468.4c-9-20.06-18.77-39.94-27.8-60.34,14.45-5.23,26.54-16.79,26.54-38.84,0-42.64-40.6-43-48.75-43H558.34a1.94,1.94,0,0,0-1.81,1.62v24.58h48.6c4.35,0,21.3.9,21.3,16.8s-15.33,16.63-21.3,16.63h-111V352.42h38.93v-26.2H469.79a1.92,1.92,0,0,0-1.89,1.62V469.11a1.91,1.91,0,0,0,1.89,1.63h63.29V443.82H494.15V412.39h62.38v56.72a1.93,1.93,0,0,0,1.81,1.63H582a2,2,0,0,0,2-1.63V412.39h15.54l26.36,57.28a2.39,2.39,0,0,0,1.79,1.07h25.83A1.58,1.58,0,0,0,655.14,468.4Z" transform="translate(-334.53 -326.22)"/><path class="cls-1" d="M765,481.37H747.11c-8,34.64-33.7,76.13-40.23,80.68h0c-5.58-2.86-20.1-27.94-30.24-54.44H658.46L706,621.32c.59,1.23,2.82,1.23,3.6,0l57.19-137.83C767.3,482.41,766.56,481.37,765,481.37Z" transform="translate(-334.53 -326.22)"/><path class="cls-1" d="M666,462.46a47.3,47.3,0,0,1,12.22-32.15,39.39,39.39,0,0,1,59.06,0,46.45,46.45,0,0,1,10.84,20.6c11.67-10.85,19.51-27.33,19.51-52.1,0-63.83-48.88-71.94-83.77-71.93H660.38a1.94,1.94,0,0,0-1.94,1.6V469.1a2,2,0,0,0,1.94,1.63h6.17a67.61,67.61,0,0,1-.55-8Z" transform="translate(-334.53 -326.22)"/><path class="cls-1" d="M706.88,562.06h0Z" transform="translate(-334.53 -326.22)"/><path class="cls-1" d="M721.48,442.62A19.39,19.39,0,1,0,694.06,470l13.7-13.7,10.35,10.33,3.37,3.37a19.48,19.48,0,0,0,0-27.41Z" transform="translate(-334.53 -326.22)"/><path class="cls-1" d="M707.76,495.75a6.24,6.24,0,1,0-6.23-6.23A6.25,6.25,0,0,0,707.76,495.75Z" transform="translate(-334.53 -326.22)"/><path class="cls-1" d="M707.76,526.05a6.24,6.24,0,1,0-6.23-6.24A6.25,6.25,0,0,0,707.76,526.05Z" transform="translate(-334.53 -326.22)"/></svg>