<?xml version="1.0" encoding="utf-8"?>
<!-- Svg Vector Icons : http://www.onlinewebfonts.com/icon -->
<!DOCTYPE svg PUBLIC "-//W3C//DTD SVG 1.1//EN" "http://www.w3.org/Graphics/SVG/1.1/DTD/svg11.dtd">
<svg fill="#93b5b3" version="1.1" xmlns="http://www.w3.org/2000/svg" xmlns:xlink="http://www.w3.org/1999/xlink" x="0px" y="0px" viewBox="0 0 1000 1000" enable-background="new 0 0 1000 1000" xml:space="preserve">
<metadata> Svg Vector Icons : http://www.onlinewebfonts.com/icon </metadata>
<g><g transform="translate(0.000000,511.000000) scale(0.100000,-0.100000)"><path d="M4839.3,5051.7c-185.1-46.8-325.4-179-374.3-351.9c-18.3-63-22.4-337.6-18.3-992.6c6.1-990.6,4.1-964.1,130.2-1100.4c48.8-50.8,48.8-52.9,44.7-463.8l-6.1-412.9L2848,869.8C1877.7,395.8,1031.6-23.2,968.5-59.8c-146.5-85.4-439.4-374.3-553.3-543.1c-109.8-164.8-209.5-380.4-268.5-583.8C106.1-1327,100-1392.1,100-1703.3c0-309.2,6.1-376.3,46.8-518.7c146.5-514.6,541.1-998.7,998.7-1222.5c156.6-77.3,162.7-83.4,205.4-195.3c168.8-437.3,587.8-864.5,1035.3-1053.6c278.7-120,429.2-148.5,764.8-150.5c337.7-2,541.1,36.6,791.2,150.5c99.7,44.8,2595.4,1259.1,4395.6,2135.7c461.7,225.8,581.7,303.1,787.2,512.6c276.6,278.6,476,624.4,581.7,1008.9l52.9,197.3l6.1,1108.6l6.1,1108.6l63,122l61,124.1l2.1,927.5l2,927.5l-54.9,113.9c-61,126.1-170.8,215.6-307.1,254.3c-44.8,12.2-235.9,22.4-423.1,22.4h-341.7l4.1,402.7c4.1,445.5-4.1,486.1-126.1,624.5c-38.7,42.7-109.8,97.6-160.7,120c-89.5,42.7-113.9,42.7-1840.8,46.8C5687.5,5063.9,4873.9,5059.9,4839.3,5051.7z M8445.7,4805.6c111.9-69.2,126.1-134.2,126.1-559.4V3870H7265.9c-1271.3,0-1309.9-2-1399.4-42.7c-111.9-50.8-193.2-126.1-250.2-231.9c-40.7-75.3-44.8-115.9-50.8-504.4l-6.1-423.1l-374.3,6.1l-374.3,6.1l-61,59c-34.6,34.6-73.2,93.6-83.4,132.2c-24.4,91.5-26.4,1649.6-2,1757.4c20.3,83.4,87.5,170.9,154.6,197.3c22.4,10.2,831.9,18.3,1800.1,18.3C8350.1,4846.3,8380.6,4846.3,8445.7,4805.6z M9474.9,3646.2c44.7-10.2,107.8-46.8,142.4-79.3l63-63.1l6.1-921.4c4.1-872.6,2.1-923.5-34.6-982.4c-83.4-136.3,4.1-130.2-1912-130.2c-1907.9,0-1834.7-4.1-1914,126.1c-38.7,65.1-40.7,99.7-40.7,974.3c0,888.9,0,909.2,42.7,962.1c83.4,105.8,36.6,103.7,1513.3,113.9c760.7,6.1,1533.7,12.2,1718.8,14.2C9245,3664.5,9432.2,3656.4,9474.9,3646.2z M5561.4,2065.8c0-211.5,10.2-417,20.3-457.7c12.2-42.7,52.9-118,91.5-168.8l71.2-91.5V945V542.3l-1794-872.6c-1405.5-685.5-1830.6-901.1-1954.7-992.6c-89.5-65.1-162.7-115.9-166.8-111.9c-4.1,4.1-144.4,288.8-313.2,634.6c-227.8,465.8-301,634.6-282.7,646.8c14.2,8.1,809.5,396.6,1765.5,862.4c956,465.8,1759.4,860.4,1785.9,874.6c44.8,28.5,44.8,36.6,44.8,445.4v417h366.1h366.1V2065.8z M9562.4,218.9c-8.1-1000.8-8.1-1043.5-52.9-1200.1c-56.9-201.3-172.9-451.6-286.8-622.4c-109.9-162.7-380.4-433.2-530.9-530.9C8557.5-2224,3897.6-4494,3869.1-4485.9c-26.4,10.2-1523.5,3091.7-1513.3,3118.2c4.1,12.2,803.4,408.9,1773.7,882.8C5101.7-13,5913.3,391.8,5933.6,416.2c30.5,36.6,34.6,89.5,34.6,441.4v398.7h1802.1h1800.1L9562.4,218.9z M1359.1-952.8l317.3-652.9l-93.6-126.1c-272.6-366.1-421-888.9-376.3-1334.3c10.2-95.6,16.3-174.9,14.2-177c-2-2-61,32.6-128.1,77.3c-559.4,364.1-866.5,1025.2-781.1,1674c52.9,398.7,215.6,730.2,492.2,1013c97.6,97.6,189.2,179,205.4,179C1027.5-299.8,1159.7-548,1359.1-952.8z M2907-3035.6c410.9-844.1,744.5-1541.8,738.3-1545.9c-6.1-6.1-105.8-24.4-221.7-42.7c-878.7-134.3-1722.8,417-1944.5,1269.2c-134.2,520.7-22.4,1090.2,294.9,1511.3c105.8,138.3,345.8,370.2,370.2,353.9C2150.3-1493.8,2494.1-2189.4,2907-3035.6z"/><path d="M4975.6,4313.4c-14.2-14.2-24.4-38.6-24.4-56.9c0-63.1,46.8-81.4,215.6-81.4c205.4,0,231.9,8.1,231.9,81.4c0,32.5-14.2,61-32.5,69.2C5307.1,4348,5002,4339.8,4975.6,4313.4z"/><path d="M5687.5,4313.4c-14.2-14.2-24.4-38.6-24.4-56.9c0-63.1,46.8-81.4,215.6-81.4c205.4,0,231.9,8.1,231.9,81.4c0,32.5-14.2,61-32.5,69.2C6019.1,4348,5713.9,4339.8,5687.5,4313.4z"/><path d="M6399.4,4313.4c-14.2-14.2-24.4-38.6-24.4-56.9c0-63.1,46.8-81.4,215.6-81.4c205.4,0,231.9,8.1,231.9,81.4c0,32.5-14.2,61-32.5,69.2C6731,4348,6425.9,4339.8,6399.4,4313.4z"/><path d="M7111.3,4313.4c-14.2-14.2-24.4-38.6-24.4-56.9c0-63.1,46.8-81.4,215.6-81.4c205.4,0,231.9,8.1,231.9,81.4c0,32.5-14.2,61-32.5,69.2C7442.9,4348,7137.8,4339.8,7111.3,4313.4z"/><path d="M7823.3,4313.4c-14.3-14.2-24.4-38.6-24.4-56.9c0-63.1,46.8-81.4,215.6-81.4c205.4,0,231.9,8.1,231.9,81.4c0,32.5-14.2,61-32.5,69.2C8154.8,4348,7849.7,4339.8,7823.3,4313.4z"/><path d="M6094.3,3113.3c-14.2-14.2-24.4-38.6-24.4-56.9s10.2-42.7,24.4-56.9c30.5-30.5,309.2-32.5,364.1-4.1c42.7,24.4,50.9,81.4,14.2,118C6440.1,3145.8,6126.9,3145.8,6094.3,3113.3z"/><path d="M6765.5,3113.3c-32.5-32.5-30.5-67.1,8.1-105.8c36.6-38.6,331.6-46.8,396.6-12.2c42.7,24.4,50.9,81.4,14.2,118C7152,3145.8,6798.1,3145.8,6765.5,3113.3z"/><path d="M7477.5,3113.3c-32.5-32.5-30.5-67.1,8.1-105.8c36.6-38.6,331.6-46.8,396.6-12.2c42.7,24.4,50.9,81.4,14.2,118C7863.9,3145.8,7510,3145.8,7477.5,3113.3z"/><path d="M8189.4,3113.3c-36.6-36.6-28.5-93.6,14.2-118c22.4-10.2,109.8-20.3,195.3-20.3s172.9,10.2,195.3,20.3c42.7,24.4,50.9,81.4,14.2,118C8575.8,3145.8,8221.9,3145.8,8189.4,3113.3z"/><path d="M8962.3,3113.3c-32.6-32.5-30.5-67.1,8.1-105.8c36.6-38.6,331.6-46.8,396.6-12.2c42.7,24.4,50.9,81.4,14.3,118C9348.8,3145.8,8994.8,3145.8,8962.3,3113.3z"/><path d="M9143.3,43.9c-26.4-10.2-103.7-52.9-168.8-91.5c-91.5-54.9-118-83.4-118-120c0-95.6,59-93.6,240,4.1c130.2,71.2,166.8,101.7,166.8,136.3c0,42.7-34.6,95.6-59,91.5C9196.2,64.3,9169.8,54.1,9143.3,43.9z"/><path d="M8472.1-497.1c-103.7-140.4-124.1-201.4-79.3-246.1c44.7-44.7,75.3-24.4,189.2,128.1c128.1,170.8,142.4,240,46.8,250.2C8582-358.8,8559.6-377.1,8472.1-497.1z"/><path d="M8240.2-997.5c-46.8-32.5-111.9-349.9-81.4-398.7c24.4-38.7,67.1-48.8,103.7-24.4c16.3,8.1,40.7,83.4,57,164.8c14.2,81.4,32.6,164.8,38.7,183.1c10.2,34.6-34.6,101.7-69.2,101.7C8280.9-971.1,8258.5-983.3,8240.2-997.5z"/><path d="M8146.7-1701.3c-40.7-26.5-24.4-376.3,20.3-421.1c26.5-26.4,42.7-28.5,77.3-10.2c38.6,22.4,42.7,40.7,42.7,197.3c0,95.6-10.2,191.2-20.4,213.6C8244.3-1680.9,8193.5-1672.8,8146.7-1701.3z"/></g></g>
</svg>
