<?xml version="1.0" encoding="utf-8"?>
<!-- Svg Vector Icons : http://www.onlinewebfonts.com/icon -->
<!DOCTYPE svg PUBLIC "-//W3C//DTD SVG 1.1//EN" "http://www.w3.org/Graphics/SVG/1.1/DTD/svg11.dtd">
<svg fill="#f7b71d" version="1.1" xmlns="http://www.w3.org/2000/svg" xmlns:xlink="http://www.w3.org/1999/xlink" x="0px" y="0px" viewBox="0 0 1000 1000" enable-background="new 0 0 1000 1000" xml:space="preserve">
<metadata> Svg Vector Icons : http://www.onlinewebfonts.com/icon </metadata>
<g><g transform="translate(0.000000,511.000000) scale(0.100000,-0.100000)"><path d="M3282.4,4617.9c-128.6-11.5-191.9-42.2-1631.3-763.8c-825.2-412.6-1510.4-763.8-1521.9-779.2c-63.3-76.8-49.9-138.2,310.9-1376C745.3,654.9,802.8,474.5,845.1,438c49.9-44.1,55.7-44.1,664-44.1h612.2v-2316.4c0-1802.1,5.8-2327.9,24.9-2364.4c11.5-24.9,46.1-63.3,72.9-82.5c48-36.4,111.3-38.4,2790.5-38.4h2740.6l59.5,59.5l59.5,59.5l5.8,2341.4l3.8,2341.4h606.4c378.1,0,619.9,7.7,642.9,19.2c19.2,11.5,48,44.1,63.3,72.9c15.4,28.8,184.2,591.1,376.1,1249.4c364.6,1247.5,370.4,1280.1,291.7,1351.1c-17.3,15.4-710.1,368.5-1539.2,783l-1506.5,756.1l-1698.5,1.9C4180.5,4629.4,3357.2,4623.7,3282.4,4617.9z M6525.8,4142c-26.9-143.9-143.9-335.8-295.5-485.5c-312.8-309-725.4-464.4-1230.2-464.4s-917.4,155.4-1230.2,464.4c-151.6,149.7-268.7,341.6-295.6,485.5l-13.4,71H5000h1539.2L6525.8,4142z M3098.1,3969.2c61.4-197.7,180.4-395.3,343.5-566.2c307.1-322.4,721.6-525.8,1216.8-598.8c255.2-38.4,428-38.4,683.2,0c763.8,113.2,1353,552.7,1564.1,1166.8l42.2,120.9l1253.2-619.9c708.2-351.2,1251.3-629.5,1251.3-644.8c0-13.4-130.5-476-291.7-1026.8L8869.1,796.9h-619.9c-692.8,0-713.9-3.8-765.7-124.7c-23-55.6-26.9-422.2-26.9-2370.2v-2303H5000H2543.5v2303c0,1948-3.8,2314.5-26.9,2370.2c-51.8,120.9-72.9,124.7-763.8,124.7H1131L839.3,1800.6c-161.2,552.7-291.7,1015.2-291.7,1028.7c0,17.3,1884.6,969.2,2508.3,1266.6C3055.9,4097.8,3075.1,4040.3,3098.1,3969.2z"/></g></g>
</svg>
